<?xml version="1.0" standalone="no"?>
<!DOCTYPE svg PUBLIC "-//W3C//DTD SVG 20010904//EN"
 "http://www.w3.org/TR/2001/REC-SVG-20010904/DTD/svg10.dtd">
<svg version="1.0" xmlns="http://www.w3.org/2000/svg"
 width="90.000000pt" height="80.000000pt" viewBox="0 0 90.000000 80.000000"
 preserveAspectRatio="xMidYMid meet">

<g transform="translate(0.000000,80.000000) scale(0.100000,-0.100000)"
fill="#000000" stroke="none">
<path d="M99 775 c-63 -34 -62 -121 2 -190 l40 -44 -40 -73 c-40 -74 -61 -155
-61 -235 0 -42 2 -45 62 -83 58 -38 140 -70 180 -70 9 0 24 -13 33 -30 21 -41
43 -50 125 -50 82 0 104 9 125 50 9 17 24 30 33 30 40 0 122 32 180 70 60 38
62 41 62 83 0 80 -21 161 -61 235 l-40 73 40 44 c65 70 65 157 0 190 -47 25
-87 17 -135 -26 -20 -18 -23 -18 -60 -3 -27 11 -52 14 -84 9 -25 -3 -52 -6
-60 -6 -8 0 -35 3 -60 6 -32 5 -57 2 -84 -9 -37 -15 -40 -15 -60 3 -48 43 -91
51 -137 26z m90 -19 c42 -22 54 -41 36 -56 -12 -10 -19 -7 -41 19 -18 22 -35
31 -57 32 -27 0 -29 2 -12 9 29 13 43 12 74 -4z m594 -5 c4 -4 -6 -6 -24 -3
-25 4 -36 -1 -60 -28 -24 -26 -32 -30 -44 -20 -18 15 -12 26 29 51 30 19 79
20 99 0z m-376 -22 c20 -7 39 -7 71 2 33 9 52 9 82 0 52 -15 123 -95 150 -169
12 -31 30 -71 41 -88 l19 -32 -33 -29 c-18 -16 -50 -39 -70 -52 -20 -12 -37
-24 -37 -26 0 -1 15 -1 33 1 17 1 32 3 32 4 0 1 9 3 20 5 11 2 35 8 52 13 72
23 42 -31 -50 -91 -27 -17 -44 -33 -38 -35 11 -4 93 12 124 23 14 6 17 2 17
-23 0 -22 -8 -36 -29 -52 -35 -25 -125 -65 -164 -74 -28 -7 -28 -7 -11 19 27
41 13 95 -46 183 l-52 77 43 3 c53 4 89 34 89 74 0 27 -2 28 -49 28 -62 0 -79
-18 -52 -51 19 -23 21 -23 37 -7 14 14 15 20 4 32 -11 14 -8 16 19 16 24 0 31
-4 31 -20 0 -34 -35 -60 -81 -60 -39 0 -41 1 -36 26 3 17 -3 40 -15 60 -34 58
-102 58 -136 0 -12 -20 -18 -43 -15 -60 5 -25 3 -26 -36 -26 -46 0 -81 26 -81
60 0 16 7 20 31 20 27 0 30 -2 19 -16 -11 -12 -10 -18 4 -32 16 -16 18 -16 37
7 27 33 10 51 -52 51 -47 0 -49 -1 -49 -28 0 -40 36 -70 88 -74 l44 -3 -56
-84 c-61 -91 -71 -136 -40 -179 15 -22 15 -23 -13 -16 -39 9 -128 49 -164 74
-21 16 -29 30 -29 52 0 25 3 29 17 23 31 -11 113 -27 124 -23 6 2 -11 18 -38
35 -58 38 -97 78 -89 91 4 6 30 2 68 -9 35 -11 74 -19 88 -17 24 3 23 4 -14
28 -22 13 -55 37 -73 53 l-33 29 19 32 c11 17 29 56 41 87 11 32 39 78 62 104
60 69 113 88 175 64z m73 -227 c16 -13 24 -33 29 -79 5 -44 15 -73 37 -102 81
-113 91 -155 49 -196 -39 -40 -129 -26 -141 21 -7 29 6 47 47 64 19 8 29 19
27 29 -5 24 -171 24 -176 0 -2 -10 8 -21 27 -29 41 -17 54 -35 47 -64 -11 -45
-96 -60 -140 -25 -46 36 -34 85 48 200 22 29 32 58 37 102 8 64 31 97 69 97
10 0 28 -8 40 -18z"/>
<path d="M393 675 c42 -14 52 -14 95 0 47 15 47 15 7 9 -22 -3 -47 -6 -55 -6
-8 0 -33 3 -55 6 -40 6 -40 6 8 -9z"/>
<path d="M388 622 c51 -19 53 -19 105 0 48 17 49 18 12 12 -22 -4 -51 -7 -65
-7 -14 0 -43 3 -65 7 -37 6 -36 5 13 -12z"/>
</g>
</svg>
